<svg width="21" height="21" viewBox="0 0 21 21" fill="none" xmlns="http://www.w3.org/2000/svg">
<g clip-path="url(#clip0)">
<path d="M19.0058 13.0394C18.7307 13.0394 18.5077 13.2623 18.5077 13.5375V17.9601C18.5068 18.7851 17.8384 19.4536 17.0134 19.4544H3.03715C2.21216 19.4536 1.54381 18.7851 1.54284 17.9601V4.98001C1.54381 4.15522 2.21216 3.48667 3.03715 3.4857H7.45976C7.73489 3.4857 7.95787 3.26272 7.95787 2.9876C7.95787 2.71267 7.73489 2.48949 7.45976 2.48949H3.03715C1.66231 2.49105 0.548187 3.60517 0.546631 4.98001V17.9603C0.548187 19.3351 1.66231 20.4492 3.03715 20.4508H17.0134C18.3883 20.4492 19.5024 19.3351 19.5039 17.9603V13.5375C19.5039 13.2623 19.281 13.0394 19.0058 13.0394V13.0394Z" fill="#5913CA"/>
<path d="M20.7456 1.20785C19.8702 0.332471 18.451 0.332471 17.5756 1.20785L8.68912 10.0943C8.62822 10.1552 8.58425 10.2307 8.56129 10.3136L7.39269 14.5325C7.34463 14.7055 7.39347 14.8907 7.52033 15.0178C7.64738 15.1446 7.83261 15.1935 8.00559 15.1456L12.2245 13.9768C12.3074 13.9539 12.3829 13.9099 12.4438 13.849L21.3301 4.9623C22.2041 4.08634 22.2041 2.6683 21.3301 1.79234L20.7456 1.20785ZM9.77444 10.4181L17.0473 3.14501L19.3929 5.49057L12.1198 12.7637L9.77444 10.4181ZM9.30591 11.3583L11.1798 13.2324L8.58775 13.9505L9.30591 11.3583ZM20.6257 4.25796L20.0975 4.78622L17.7517 2.44046L18.2802 1.9122C18.7664 1.42596 19.5548 1.42596 20.041 1.9122L20.6257 2.49669C21.1112 2.98351 21.1112 3.77133 20.6257 4.25796V4.25796Z" fill="#5913CA"/>
</g>
<defs>
<clipPath id="clip0">
<rect width="20" height="20" fill="white" transform="translate(0.546631 0.475494)"/>
</clipPath>
</defs>
</svg>
